<svg xmlns="http://www.w3.org/2000/svg" data-name="Layer 1" viewBox="0 0 24 30" x="0px" y="0px"><title>rounded</title><path d="M19.3717,12.0575l-1.21807-1.82715a.98362.98362,0,0,1-.159-.50885A7.00046,7.00046,0,0,0,11.00006,3a7.356,7.356,0,0,0-1.404.1366A6.99843,6.99843,0,0,0,7.00006,15.74V19a2,2,0,0,0,2,2h4a2,2,0,0,0,2-2,1,1,0,0,1,1-1,2,2,0,0,0,2-2V14.618a.99992.99992,0,0,1,.5528-.89441l.434-.217A1,1,0,0,0,19.3717,12.0575ZM14.96582,9.79785l-.53717.09479c.0011.0365.0108.07062.0108.10736a3.48053,3.48053,0,0,1-.25464,1.29675l.46851.27063a.49975.49975,0,0,1-.25049.93262.49284.49284,0,0,1-.24951-.06738l-.47693-.27545a3.49285,3.49285,0,0,1-1.08795.91223l.1889.51849a.49985.49985,0,1,1-.93945.3418l-.18353-.50373a3.48846,3.48846,0,0,1-1.42981,0l-.18353.50373a.49985.49985,0,1,1-.93946-.3418l.18891-.51849a3.49289,3.49289,0,0,1-1.088-.91223l-.47692.27545A.49288.49288,0,0,1,7.47607,12.5a.49975.49975,0,0,1-.25048-.93262l.4685-.27063A3.48073,3.48073,0,0,1,7.43945,10c0-.03674.00971-.07086.01081-.10736l-.53717-.09479a.4998.4998,0,1,1,.17382-.98437l.54322.09588a3.475,3.475,0,0,1,.70819-1.23114l-.35346-.42138a.50015.50015,0,0,1,.7666-.64258l.351.41845a3.46454,3.46454,0,0,1,1.337-.48229V6a.5.5,0,0,1,1,0v.55042a3.46453,3.46453,0,0,1,1.337.48229l.351-.41845a.50015.50015,0,0,1,.7666.64258l-.35345.42138a3.475,3.475,0,0,1,.70819,1.23114l.54321-.09588a.49362.49362,0,0,1,.5791.40527A.49954.49954,0,0,1,14.96582,9.79785Z"/><circle cx="10.93945" cy="10" r="2"/></svg>