<svg xmlns="http://www.w3.org/2000/svg" xmlns:xlink="http://www.w3.org/1999/xlink" version="1.0" x="0px" y="0px" viewBox="0 0 100 125" enable-background="new 0 0 100 100" xml:space="preserve"><path d="M60.0572815,56.9634132c-0.4299164,0-0.8598366,0.020752-1.2884789,0.0609169  c-3.3876724,0.3202057-5.8625717,2.1782913-7.3293304,3.6590843c-0.0207291,0.0207291-0.0414619,0.042099-0.0618744,0.0628281  c-0.9921913,1.0139008-1.5040741,1.835125-1.5040741,1.835125s-0.5112419-0.8212242-1.503437-1.835125  c-0.0207291-0.0207291-0.0411415-0.042099-0.062191-0.0628281c-1.4667587-1.480793-3.9416542-3.3388786-7.3293304-3.6590843  c-0.4283218-0.0401649-0.8588791-0.0609169-1.2887955-0.0609169c-5.7394676,0-11.3867626,3.6552773-11.3858051,12.0970192  c0.0003185,0.3789062,0.0114803,0.767662,0.0350819,1.166008c0.6209564,10.6139908,13.7876663,22.2249832,21.4812164,25.4825363  c7.6929131-3.2575531,20.9671059-14.8685455,21.5883751-25.4825363c0.0232849-0.3983459,0.0347672-0.7871017,0.0347672-1.166008  C71.4443588,60.6190109,65.7964249,56.9637527,60.0572815,56.9634132z"/><path d="M70.2311478,46.8482285c-0.736084-1.7471008-1.7933426-3.961731-2.1524582-5.8284302  c-0.1473465-0.7635193-0.2953262-1.8577652-0.2545013-2.8808937c-0.1642532,0.7485275-0.5954437,2.995369-0.4382095,5.29422  c0.1253357,1.8345032,0.5377121,3.9757805,0.9303131,5.8316536c0.2063522,1.4769478,0.1801987,2.5039024,0.1801987,2.5039024  c0,1.5160332-0.4694672,2.9220352-1.2693405,4.0826225c1.1401749,0.6314812,2.1632996,1.4178047,3.0496063,2.357872  c1.3037872,1.3822403,2.2800369,3.0531158,2.901947,4.9660378C73.3799515,58.4571228,72.6027145,53.0165138,70.2311478,46.8482285z"/><path d="M34.4835548,55.080471c1.6737442-0.6496811,3.480484-0.9791374,5.3695068-0.9791374  c0.5000801,0,1.0084572,0.023941,1.5120468,0.0714607c1.6064491,0.1517906,3.1723976,0.6005249,4.6544647,1.3340645  c1.1631393,0.5753708,2.2736549,1.3251762,3.3012466,2.2290039c0.2567368,0.2258034,0.4956169,0.4497108,0.7159958,0.6678581  c0.2210197-0.2181473,0.4595795-0.4420547,0.71632-0.6678581c1.0275917-0.9038277,2.1384239-1.6536331,3.3015633-2.2290039  c0.2254829-0.1116257,0.4535179-0.2143021,0.6825104-0.3127098c-0.4168434-0.8560104-0.6509361-1.8304977-0.6509361-2.8985977  c0-1.8772011,0.8301735-3.7748566,1.8941269-5.3959579c7.2757492-11.0857086,4.3253288-21.879879,4.3253288-21.879879  s1.5241661,10.1004944-6.6710625,19.0582848c0,0,13.9130096-21.9174938-10.1008339-38.8794708  c0,0,7.7407532,6.7877893,7.6233864,17.1526985c0,0,0.2930946,9.3835411-8.9574699,17.5341187  c0,0-8.9571533,7.4330025-9.9104347,14.6752701c0,0-0.4777565-6.8174515,7.4329834-15.818615  c6.5441284-7.4466991,5.336338-14.6755886,2.8585701-17.5341377c0,0,4.4678917,8.479393-4.1929703,16.2000542  c-5.7410622,5.1180305-15.8221245,12.8785553-12.0995712,28.4321404c0.1333122-0.9282455,0.332325-1.8180618,0.6053295-2.6597404  c0.6219139-1.9154739,1.5984764-3.5882835,2.9035397-4.9717789C31.0894985,56.8384132,32.6662903,55.785923,34.4835548,55.080471z"/></svg>