<svg xmlns="http://www.w3.org/2000/svg" xmlns:xlink="http://www.w3.org/1999/xlink" version="1.1" x="0px" y="0px" viewBox="0 0 90 112.5" enable-background="new 0 0 90 90" xml:space="preserve"><path d="M72.706,16L44.996,0l-27.7,15.98l0.02,31.97l9.7,5.6l-2.47,4.28l0.08,0.141l-5.24-0.011l-13.5,23.392l5.03,8.68l10.03,0.021  l13.5-23.38l-2.63-4.542h0.17l2.47-4.278l10.57,6.1L72.727,47.98L72.706,16z M45.026,58.17l-22.71-13.11l-0.02-26.2l22.7-13.08  l22.71,13.11l0.01,26.2L45.026,58.17z"/><polygon points="30.73,18.567 30.94,18.938 25.221,18.938 29.661,16.647 30.23,17.938 31.101,17.938 "/><polygon points="32.98,14.638 32.98,16.938 32.011,16.938 31.44,15.757 "/><polygon points="26.891,23.938 25.621,26.248 26.07,27.087 25.3,28.357 26.86,30.938 23.98,30.938 23.98,20.938 26.741,20.938   26.13,21.607 27.71,23.938 "/><polygon points="32.98,20.938 32.98,23.938 30.971,23.938 32.511,21.647 31.931,20.938 "/><polygon points="28.271,41.708 28.98,42.938 23.98,42.938 23.98,32.938 25.931,32.938 25.73,33.345 26.271,33.938 27.38,33.938   27.891,34.848 27.281,35.928 27.641,36.567 27.05,37.438 28.011,38.938 29.86,38.938 "/><polygon points="32.98,34.938 32.98,37.938 30.86,37.938 29.11,35.058 29.721,33.857 29.261,32.938 32.201,32.938 31.851,33.848   32.3,34.938 "/><polygon points="31.791,46.938 31.081,48.188 25.431,44.938 29.67,44.938 30.86,46.938 "/><polygon points="43.98,8.062 43.98,18.938 40.621,18.938 40.96,18.478 40,16.938 38.09,16.938 37.13,18.478 37.471,18.938   34.911,18.938 33.98,17.317 33.98,13.947 "/><polygon points="43.98,20.938 43.98,30.938 33.98,30.938 35.331,28.498 33.98,25.938 36.281,25.938 37.331,23.938 36.281,21.938   33.98,21.938 33.98,20.938 38.181,20.938 37.931,21.288 38.351,21.938 39.19,21.938 39.659,21.312 39.521,20.938 "/><polygon points="43.98,32.938 43.98,42.938 41.721,42.938 41.86,42.678 41.44,41.938 40.601,41.938 40.241,42.717 39.11,40.938   37.971,40.938 36.041,37.938 33.98,37.938 33.98,32.938 "/><polygon points="43.98,44.938 43.98,55.422 33.98,49.527 36.621,46.938 39.11,46.938 40.271,44.938 "/><polygon points="55.283,12.938 53.992,14.877 53.512,13.938 52.293,13.938 51.053,16.478 51.662,17.938 52.602,17.938   53.562,18.938 45.982,18.938 45.982,8.058 "/><path d="M55.361,27.938l-0.789-1.63l-0.891,1.63h-2.08l-0.609,1h-1.221l-0.609-1l0.609-1h1.191l-0.422-0.72l0.631-1.08l-0.449-0.6  l0.42-0.6h0.84l0.42,1h1.131l1.5-2.65l-0.791-1.35h-1.449l-0.318,0.3l0.568,0.82l-0.611,0.88h-1.219l-0.611-1.01l0.391-0.4  l-0.5-0.59h-0.49l0.422,0.5l-0.422,0.5h-0.84l-0.42-0.5l0.42-0.5H45.98v10h1.99l0.629-1h7.381v-1.65L55.361,27.938z"/><polygon points="47.271,32.921 46.592,34.031 46.592,32.921 "/><polygon points="52.32,42.94 45.98,42.94 45.98,35.55 48.6,38.94 50.77,38.94 51.87,40.86 51.43,41.59 "/><polygon points="55.842,49.938 45.982,55.428 45.982,44.938 53.033,44.938 52.172,46.348 54.053,49.938 "/><polygon points="65.66,44.94 56.98,48.98 56.98,46.08 57.64,44.94 "/><polygon points="65.873,18.938 63.861,18.938 62.873,17.197 "/><polygon points="61.021,26.938 60.293,27.938 59.512,27.938 59.092,28.487 59.463,28.938 58.412,28.938 57.803,29.938   58.422,30.938 56.982,30.938 56.982,26.938 "/><polygon points="66.293,22.938 64.232,25.938 62.973,25.938 65.463,22.067 64.553,20.938 65.982,20.938 "/><polygon points="66.312,29.938 66.312,30.938 64.602,30.938 65.912,28.987 66.293,29.938 "/><polygon points="60.682,32.938 60.422,33.938 59.373,33.938 58.732,32.938 "/><polygon points="65.982,32.938 65.982,42.938 58.152,42.938 58.602,41.618 57.983,39.587 57.983,38.938 58.473,38.938   61.092,34.938 61.521,34.938 61.941,33.938 61.521,32.938 "/></svg>