<svg xmlns="http://www.w3.org/2000/svg" xmlns:xlink="http://www.w3.org/1999/xlink" version="1.1" x="0px" y="0px" viewBox="0 0 512 640" style="enable-background:new 0 0 512 512;" xml:space="preserve"><path d="M84.3,103.1c7.1,3.7,11.9,10.7,12.8,18.7l2.5,22.2h56.8l2.5-22.2c0.9-8,5.7-15,12.8-18.7c2.8-1.4,4.4-4.4,4.3-7.5  c-0.3-4.1-3.5-7.3-7.6-7.6c-4.4-0.2-8.2,3.2-8.4,7.6c0,0.1,0,0.3,0,0.4h-16v-8c0-8.8-7.2-16-16-16s-16,7.2-16,16v8H96  c0-4.4-3.6-8-8-8c-0.1,0-0.3,0-0.4,0c-4.1,0.3-7.3,3.5-7.6,7.6C79.8,98.7,81.5,101.7,84.3,103.1z"/><path d="M128,224h103.1l-3.7-7.4c-2.2-4.4-3.4-9.3-3.4-14.3V128c0-53-43-96-96-96s-96,43-96,96S75,224,128,224z M64,94.9  C64.7,82.5,74.5,72.7,86.9,72c4.2-0.2,8.3,0.7,12.1,2.6c7.4-16,26.4-23.1,42.4-15.7c6.9,3.2,12.5,8.8,15.7,15.7  c3.7-1.9,7.9-2.8,12.1-2.6c13.2,0.6,23.5,11.9,22.8,25.1c-0.4,8.5-5.3,16.2-12.8,20.1c-2.4,1.2-4.1,3.6-4.4,6.3l-7.6,68.5H88.8  l-7.6-68.5c-0.3-2.7-2-5-4.4-6.3C68.6,112.9,63.6,104.2,64,94.9z"/><path d="M232.9,251.5l-9.8,3.9C214,259,208,267.8,208,277.7V296h96v-18.3c0-9.8-6-18.7-15.1-22.3l-9.8-3.9  C270,247.8,264,239,264,229.2v-1.4c0-3.7,0.9-7.4,2.5-10.7l3.8-7.6c1.1-2.2,1.7-4.7,1.7-7.2V176c0-8.8-7.2-16-16-16  c-8.8,0-16,7.2-16,16v26.3c0,2.5,0.6,4.9,1.7,7.2l3.8,7.6c1.7,3.3,2.5,7,2.5,10.7v1.4C248,239,242,247.8,232.9,251.5z"/><path d="M480,128c0-53-43-96-96-96s-96,43-96,96v74.3c0,5-1.2,9.9-3.4,14.3l-3.7,7.4H384C437,223.9,479.9,181,480,128z M312,160v-24  h8V88c0-13.2,10.8-24,24-24h80c13.2,0,24,10.8,24,24v48h8v24c0,13.2-10.8,24-24,24h-96C322.8,184,312,173.2,312,160z"/><polygon points="103.2,176 152.8,176 154.6,160 101.4,160 "/><path d="M163.3,384H128v-35.3l18.5-18.5l-11.8-5.9c-3.1-1.5-6.8-0.9-9.2,1.5L114.3,337c-1.5,1.5-2.3,3.5-2.3,5.7v44.7l-2.3,2.3  c0,0-16.2,16.2-28,27.9c-1.7,1.7-2.6,4-2.6,6.3c0,2.4,1,4.8,2.7,6.5l0.3,0.3c1.6,1.6,3.8,2.5,6,2.5h0c2.3,0,4.5-0.9,6-2.5l30.5-30.7  h44.7c2.1,0,4.2-0.8,5.7-2.3l11.2-11.2c2.4-2.4,3-6.2,1.5-9.2l-5.9-11.8L163.3,384z"/><path d="M336,352v24c0,4.4,3.6,8,8,8s8-3.6,8-8v-32h-8C339.6,344,336,347.6,336,352z"/><path d="M432,88c0-4.4-3.6-8-8-8h-80c-4.4,0-8,3.6-8,8v48h96V88z"/><path d="M384,288h-64v24h-32v72c0,53,43,96,96,96s96-43,96-96S437,288,384,288z M448,424c0,13.2-10.8,24-24,24h-96v-16h72v-48  c0-4.4-3.6-8-8-8h-24c0,10.2-6.4,19.2-16,22.6V416h-16v-17.4c-9.6-3.4-16-12.5-16-22.6v-24c0-13.2,10.8-24,24-24h56v-16h16v16h8  c13.2,0,24,10.8,24,24V424z"/><path d="M424,344h-56v16h24c10.2,0,19.2,6.4,22.6,16H432v-24C432,347.6,428.4,344,424,344z"/><path d="M192,288h-64c-53,0-96,43-96,96s43,96,96,96s96-43,96-96v-72h-32V288z M202,370.1c4.6,9.2,2.8,20.4-4.5,27.7L186.3,409  c-4.5,4.5-10.6,7-17,7h-38l-25.9,26c-4.6,4.6-10.8,7.2-17.4,7.2h0c-6.5,0-12.8-2.6-17.4-7.2l-0.3-0.3c-9.8-9.7-9.8-25.6-0.1-35.4  c0,0,0,0,0.1-0.1c9.1-9,20.7-20.7,25.6-25.6v-38.1c0-6.4,2.5-12.5,7-17l11.2-11.2c7.3-7.3,18.5-9.1,27.7-4.5l31.6,15.8L144,355.3  V368h12.7l29.5-29.5L202,370.1z"/><path d="M416,432h8c4.4,0,8-3.6,8-8v-32h-16V432z"/><path d="M440,160v-8H328v8c0,4.4,3.6,8,8,8h96C436.4,168,440,164.4,440,160z"/></svg>