<svg xmlns="http://www.w3.org/2000/svg" viewBox="0 0 64 80" x="0px" y="0px"><g><path d="M53.7593,58.35,42,44.63V26h3a1,1,0,0,0,1-1V17a1,1,0,0,0-1-1H38V26h2V44.63L28.2407,58.35A1,1,0,0,0,29.7593,59.65l7.0742-8.2533L40,55.3513V59a1,1,0,0,0,2,0V55.3513l3.1665-3.9542L52.2407,59.65A1,1,0,0,0,53.7593,58.35Zm-15.601-8.4981L40,47.7028v4.4488ZM42,52.1516V47.7028l1.8417,2.1487Zm-6.36-24.383-12,10A1,1,0,0,1,22,37V5a1,1,0,0,1,1.64-.7686l12,10A1.0011,1.0011,0,0,1,36,15V27A1.0011,1.0011,0,0,1,35.64,27.7686ZM20,21a1,1,0,0,1-1,1H11a1,1,0,0,1,0-2h8A1,1,0,0,1,20,21Zm0,6a1,1,0,0,1-1,1H13a1,1,0,0,1,0-2h6A1,1,0,0,1,20,27Zm0-12a1,1,0,0,1-1,1H13a1,1,0,0,1,0-2h6A1,1,0,0,1,20,15Z"/></g></svg>