<svg xmlns="http://www.w3.org/2000/svg" viewBox="0 0 64 80" x="0px" y="0px"><title>lighting composition</title><g data-name="lighting composition"><rect x="30" y="4" width="4" height="2"/><rect x="28" y="8" width="8" height="6"/><rect x="4" y="30" width="2" height="4"/><rect x="8" y="28" width="6" height="8"/><rect x="58" y="30" width="2" height="4"/><rect x="50" y="28" width="6" height="8"/><circle cx="32" cy="33" r="3"/><rect x="28" y="58" width="8" height="2"/><rect x="31" y="54" width="2" height="2"/><rect x="31" y="40" width="2" height="2"/><rect x="31" y="44" width="2" height="2"/><rect x="31" y="48" width="2" height="2"/><path d="M28.03,30H25a1,1,0,0,0-1,1v2a1,1,0,0,0,1,1h2.1a5.468,5.468,0,0,1-.1-1A4.924,4.924,0,0,1,28.03,30Z"/><path d="M39,30H35.97A4.924,4.924,0,0,1,37,33a5.468,5.468,0,0,1-.1,1H39a1,1,0,0,0,1-1V31A1,1,0,0,0,39,30Z"/><rect x="22.172" y="16" width="5.657" height="2" transform="translate(-4.698 22.657) rotate(-45)"/><rect x="38" y="14.172" width="2" height="5.657" transform="translate(-0.598 32.556) rotate(-45)"/><rect x="16" y="36.172" width="2" height="5.657" transform="translate(-22.598 23.444) rotate(-45)"/><rect x="14.172" y="24" width="5.657" height="2" transform="translate(-12.698 19.343) rotate(-45)"/><rect x="46" y="22.172" width="2" height="5.657" transform="translate(-3.912 40.556) rotate(-45)"/><rect x="44.172" y="38" width="5.657" height="2" transform="translate(-13.811 44.657) rotate(-45)"/></g></svg>