<svg xmlns="http://www.w3.org/2000/svg" xmlns:xlink="http://www.w3.org/1999/xlink" version="1.1" x="0px" y="0px" viewBox="0 0 64 80" style="enable-background:new 0 0 64 64;" xml:space="preserve"><g><polygon points="8.414,33 17.586,33 20.586,30 16,25.414  "/><polygon points="47.586,33 40,25.414 35.414,30 38.414,33  "/><polygon points="20.414,33 35.586,33 28,25.414  "/><path d="M51,48c0,0.553-0.447,1-1,1H6c-0.553,0-1-0.447-1-1V6c0-0.553,0.447-1,1-1h34.641c0.735-0.764,1.562-1.433,2.463-2H3v58h50   V26.637c-0.65,0.154-1.317,0.26-2,0.313V48z M7,59H5v-2h2V59z M11,59H9v-2h2V59z M15,59h-2v-2h2V59z M51,59H36v-2h15V59z M51,55H36   v-2h15V55z"/><rect x="7" y="35" width="42" height="12"/><path d="M49,26.949C42.299,26.435,37,20.83,37,14c0-2.578,0.764-4.977,2.063-7H7v24.586l8.293-8.293   c0.391-0.391,1.023-0.391,1.414,0L22,28.586l5.293-5.293c0.391-0.391,1.023-0.391,1.414,0L34,28.586l5.293-5.293   c0.391-0.391,1.023-0.391,1.414,0L49,31.586V26.949z M28,19c-2.757,0-5-2.243-5-5s2.243-5,5-5s5,2.243,5,5S30.757,19,28,19z"/><circle cx="28" cy="14" r="3"/><path d="M50,3c-6.065,0-11,4.935-11,11s4.935,11,11,11s11-4.935,11-11S56.065,3,50,3z M50,13c2.206,0,4,1.794,4,4   c0,1.859-1.279,3.411-3,3.858V23h-2v-2.142c-1.721-0.447-3-1.999-3-3.858h2c0,1.103,0.897,2,2,2s2-0.897,2-2s-0.897-2-2-2   c-2.206,0-4-1.794-4-4c0-1.859,1.279-3.411,3-3.858V5h2v2.142c1.721,0.447,3,1.999,3,3.858h-2c0-1.103-0.897-2-2-2s-2,0.897-2,2   S48.897,13,50,13z"/></g></svg>