<svg xmlns:dc="http://purl.org/dc/elements/1.1/" xmlns:cc="http://creativecommons.org/ns#" xmlns:rdf="http://www.w3.org/1999/02/22-rdf-syntax-ns#" xmlns:svg="http://www.w3.org/2000/svg" xmlns="http://www.w3.org/2000/svg" xmlns:sodipodi="http://sodipodi.sourceforge.net/DTD/sodipodi-0.dtd" xmlns:inkscape="http://www.inkscape.org/namespaces/inkscape" viewBox="0 0 8.4666699 10.58333725" version="1.1" x="0px" y="0px"><g transform="translate(-114.44339,-186.30179)"><path style="paint-order:fill markers stroke;" d="m 119.17476,187.22783 -0.74705,0.73819 h -2.73922 c -0.68979,0 -1.2451,0.54876 -1.2451,1.23037 v 3.41568 c 0,0.68161 0.55531,1.23035 1.2451,1.23035 h 5.97647 c 0.68978,0 1.2451,-0.54874 1.2451,-1.23035 v -3.41568 c 0,-0.68162 -0.55532,-1.23037 -1.2451,-1.23037 h -0.49805 l -0.74705,-0.73819 z m -3.48968,1.42884 h 0.99657 a 0.24901957,0.24607059 0 0 1 0.24999,0.24703 0.24901957,0.24607059 0 0 1 -0.24999,0.24559 h -0.99657 a 0.24901957,0.24607059 0 0 1 -0.24804,-0.24559 0.24901957,0.24607059 0 0 1 0.24804,-0.24703 z m 6.11266,0.0255 a 0.2242918,0.22163566 0 0 1 0.2242,0.22155 0.2242918,0.22163566 0 0 1 -0.2242,0.22158 0.2242918,0.22163566 0 0 1 -0.22422,-0.22158 0.2242918,0.22163566 0 0 1 0.22422,-0.22155 z m -2.02474,0.0192 a 2.1670334,2.1413705 0 0 1 0.007,0 2.1670334,2.1413705 0 0 1 2.16725,2.1416 2.1670334,2.1413705 0 0 1 -2.16725,2.14109 2.1670334,2.1413705 0 0 1 -2.16677,-2.14109 2.1670334,2.1413705 0 0 1 2.16044,-2.14161 z m 0.002,0.22878 a 1.9359233,1.9129973 0 0 0 -1.93088,1.91283 1.9359233,1.9129973 0 0 0 1.93574,1.91281 1.9359233,1.9129973 0 0 0 1.93623,-1.91281 1.9359233,1.9129973 0 0 0 -1.93623,-1.91283 1.9359233,1.9129973 0 0 0 -0.005,0 z m 0.005,1.55428 a 0.36275028,0.35845446 0 0 1 0.36282,0.35855 0.36275028,0.35845446 0 0 1 -0.36282,0.35852 0.36275028,0.35845446 0 0 1 -0.36234,-0.35852 0.36275028,0.35845446 0 0 1 0.36234,-0.35855 z" fill="#000000" fill-opacity="1" stroke="none"/></g></svg>