<svg xmlns="http://www.w3.org/2000/svg" data-name="Layer 1" viewBox="0 0 100 125" x="0px" y="0px"><title>A_39</title><path d="M14.00259,8.18938V73.80521A3.18934,3.18934,0,0,0,17.192,76.99464H38.31485L48.58611,94.304a1.42119,1.42119,0,0,0,2.44446,0L61.30183,76.99464h21.506a3.18942,3.18942,0,0,0,3.18937-3.18943V8.18938A3.18937,3.18937,0,0,0,82.80779,5H17.192A3.18929,3.18929,0,0,0,14.00259,8.18938ZM28.06531,35.46143l15.22891-1.49836,6.131-14.02048a.62711.62711,0,0,1,1.14923,0l6.13105,14.02048,15.22891,1.49836a.62713.62713,0,0,1,.355,1.093L60.84991,46.718l3.28092,14.94654A.62723.62723,0,0,1,63.201,62.34l-13.2011-7.73909L36.79866,62.34a.62715.62715,0,0,1-.92974-.67551L39.14985,46.718,27.71019,36.55444A.62714.62714,0,0,1,28.06531,35.46143Z"/></svg>