<svg xmlns="http://www.w3.org/2000/svg" data-name="Layer 1" viewBox="0 0 64 80" x="0px" y="0px"><title>product- results- result-effect- goods</title><path d="M2.016,34.271,2.6,38.852A23.774,23.774,0,0,0,10.832,54H9.368v8H22V54H20.947V51A9.962,9.962,0,0,0,16.9,43l-1.566-3.1a1.654,1.654,0,0,0-1.477-.9,1.637,1.637,0,0,0-1.619,1.952L12.855,44l2.023,4A16.988,16.988,0,0,1,6.457,36.047l-.4-2.359a2.044,2.044,0,0,0-4.044.583Z"/><path d="M61.984,34.271a2.044,2.044,0,0,0-4.044-.583l-.4,2.359A16.988,16.988,0,0,1,49.122,48l2.023-4,.616-3.048A1.637,1.637,0,0,0,50.142,39a1.654,1.654,0,0,0-1.477.9L47.1,43a9.962,9.962,0,0,0-4.046,8v3H42v8H54.632V54H53.168a23.774,23.774,0,0,0,8.237-15.148Z"/><rect x="18" y="16" width="28" height="4"/><rect x="19" y="21" width="10" height="14"/><rect x="35" y="21" width="10" height="14"/><rect x="30" y="21" width="4" height="14"/><path d="M46,9h2a5.006,5.006,0,0,1,5-5V2A7.009,7.009,0,0,0,46,9Z"/><path d="M16,9h2a7.009,7.009,0,0,0-7-7V4A5.006,5.006,0,0,1,16,9Z"/><path d="M27.09,7.659a.1.1,0,0,0,0,.206C30.727,8.527,31.3,9.226,32,13c.7-3.774,1.273-4.473,4.91-5.135a.1.1,0,0,0,0-.206c-3.448-.628-4.143-1.289-4.8-4.573a.111.111,0,0,0-.216,0C31.233,6.37,30.538,7.031,27.09,7.659Z"/><path d="M8.108,17.086a.111.111,0,0,0-.216,0c-.659,3.284-1.354,3.945-4.8,4.573a.1.1,0,0,0,0,.206C6.727,22.527,7.3,23.226,8,27c.7-3.774,1.273-4.473,4.91-5.135a.1.1,0,0,0,0-.206C9.462,21.031,8.767,20.37,8.108,17.086Z"/><path d="M51.09,21.865C54.727,22.527,55.3,23.226,56,27c.7-3.774,1.273-4.473,4.91-5.135a.1.1,0,0,0,0-.206c-3.448-.628-4.143-1.289-4.8-4.573a.111.111,0,0,0-.216,0c-.659,3.284-1.354,3.945-4.8,4.573A.1.1,0,0,0,51.09,21.865Z"/></svg>