<svg xmlns="http://www.w3.org/2000/svg" data-name="Layer 21" viewBox="0 0 100 125" x="0px" y="0px"><title>25. story</title><path d="M50,51.57A25.63,25.63,0,0,1,75.46,76a33.6,33.6,0,0,0,6.61.86,32.07,32.07,0,0,0-64.14,0A33.6,33.6,0,0,0,24.54,76,25.62,25.62,0,0,1,50,51.57Z"/><path d="M28.85,74.3a38.17,38.17,0,0,1,3.88-2,17.92,17.92,0,0,1,34.54,0,38.17,38.17,0,0,1,3.88,2l.46.27a14,14,0,0,0,2.84,1.17,24.49,24.49,0,0,0-48.9,0,14,14,0,0,0,2.84-1.17Z"/><path d="M66.09,71.82a16.92,16.92,0,0,0-32.18,0,11.7,11.7,0,0,1,6.16-.54,11.48,11.48,0,0,1,19.86,0A11.7,11.7,0,0,1,66.09,71.82Z"/><path d="M58.91,71.52a10.48,10.48,0,0,0-17.82,0c2.65.76,5.6,2.57,8.91,6.06C53.31,74.09,56.26,72.28,58.91,71.52Z"/><polygon points="42.92 85.5 42.19 85.5 35.34 85.5 34.76 85.5 34.19 85.5 27 85.5 26.47 85.5 25.94 85.5 19.07 85.5 13.13 85.5 10.5 85.5 10.5 89.5 20.45 89.5 27.74 89.5 28.32 89.5 28.88 89.5 37.09 89.5 37.8 89.5 38.49 89.5 49.5 89.5 49.5 88.56 49.5 88.06 49.5 87.56 49.5 85.5 43.75 85.5 42.92 85.5"/><path d="M40.59,72.42l-.5-.11-.51-.1a11.27,11.27,0,0,0-6,.8l-.57.24-.57.26c-1.07.51-2.09,1.09-3.09,1.66l-.45.26A15.51,15.51,0,0,1,25.5,76.8l-.5.14-.5.12a35,35,0,0,1-6.55.83c-1.93.08-3.53,0-4.32,0V84.5H49.5v-6C46.14,74.9,43.21,73.1,40.59,72.42Z"/><polygon points="80.93 85.5 74.06 85.5 73.53 85.5 73 85.5 65.81 85.5 65.24 85.5 64.66 85.5 57.81 85.5 57.08 85.5 56.25 85.5 50.5 85.5 50.5 87.56 50.5 88.06 50.5 88.56 50.5 89.5 61.51 89.5 62.2 89.5 62.91 89.5 71.12 89.5 71.69 89.5 72.26 89.5 79.56 89.5 89.5 89.5 89.5 85.5 86.87 85.5 80.93 85.5"/><path d="M70.66,75.17c-1-.57-2-1.15-3.09-1.66L67,73.25,66.43,73a11.27,11.27,0,0,0-6-.8l-.51.1-.5.11c-2.62.68-5.55,2.48-8.91,6.08v6H86.37V77.87c-.79,0-2.39.1-4.32,0a35,35,0,0,1-6.55-.83l-.5-.12-.51-.14a15.63,15.63,0,0,1-3.38-1.37Z"/><path d="M33.07,10.37a15,15,0,1,0,9.64,22.18,12.14,12.14,0,0,1-9.64-22.18Z"/><path d="M72.45,18.31v-3.9a.5.5,0,0,0-.5-.5.5.5,0,0,0-.5.5v3.9a.5.5,0,0,0,.5.5A.51.51,0,0,0,72.45,18.31Z"/><path d="M71.45,41.69v3.9a.5.5,0,0,0,.5.5.5.5,0,0,0,.5-.5v-3.9a.51.51,0,0,0-.5-.5A.5.5,0,0,0,71.45,41.69Z"/><path d="M56.36,29.5a.5.5,0,0,0,0,1h3.9a.5.5,0,0,0,0-1Z"/><path d="M87.54,30.5a.5.5,0,0,0,0-1h-3.9a.5.5,0,0,0,0,1Z"/><circle cx="71.95" cy="30" r="7.79"/><path d="M82.62,18.62l-2.76,2.76a.51.51,0,0,0,0,.71.52.52,0,0,0,.71,0l2.76-2.76a.5.5,0,0,0-.71-.71Z"/><path d="M63.33,37.91l-2.76,2.76a.51.51,0,0,0,0,.71.52.52,0,0,0,.71,0L64,38.62a.5.5,0,0,0-.71-.71Z"/><path d="M61.28,18.62a.5.5,0,1,0-.71.71l2.76,2.76a.52.52,0,0,0,.35.14.54.54,0,0,0,.36-.14.51.51,0,0,0,0-.71Z"/><path d="M79.86,37.91a.51.51,0,0,0,0,.71l2.76,2.76a.52.52,0,0,0,.35.14.54.54,0,0,0,.36-.14.51.51,0,0,0,0-.71l-2.76-2.76A.51.51,0,0,0,79.86,37.91Z"/></svg>