<svg xmlns="http://www.w3.org/2000/svg" xmlns:xlink="http://www.w3.org/1999/xlink" version="1.1" x="0px" y="0px" viewBox="0 0 100 125" style="enable-background:new 0 0 100 100;" xml:space="preserve"><path d="M64.36,62.22c-0.76,0.05-1.39,0.42-1.86,0.97c-1.2,1.49-3.11,2.2-4.97,1.88l-1.99-0.31c-0.6-0.1-1.2,0-1.7,0.29l-1.83,0.99  c-0.08,0.03-0.13,0.05-0.18,0.08l9.37,22.19l1.54-12.66c0.08-0.47,0.37-0.86,0.81-1.05c0.42-0.18,0.92-0.13,1.28,0.16l10.2,7.72  l-8.84-20.88C65.62,61.9,65.01,62.14,64.36,62.22z"/><path d="M36.45,74.59c0.44,0.18,0.73,0.58,0.81,1.05l1.57,12.69l9.21-21.82c-0.47-0.13-0.92-0.34-1.33-0.58l-1.88-1.15  c-0.5-0.31-1.1-0.42-1.67-0.37l-2.2,0.21c-0.08,0.03-0.34,0.03-0.55,0.03c-1.7,0-3.3-0.81-4.29-2.2c-0.42-0.58-1.05-0.97-1.75-1.05  c-0.16-0.03-0.29-0.1-0.42-0.13l-8.97,21.19l10.2-7.72C35.53,74.46,36.03,74.41,36.45,74.59z"/><path d="M75.58,33.91l-1.31-1.83c-0.68-0.92-1.05-2.07-1.02-3.24l0.05-2.2c0.03-0.94-0.47-1.86-1.31-2.38l-1.73-1.07  c-1.02-0.55-1.78-1.47-2.22-2.59l-0.71-1.96c-0.34-0.86-1.15-1.52-2.12-1.67c-1.39-0.24-2.64-1.02-3.43-2.12  c-0.52-0.68-1.33-1.1-2.2-1.1h-0.44l-2.01,0.24c-1.2,0.1-2.35-0.16-3.32-0.73l-1.88-1.18c-0.84-0.5-1.86-0.52-2.69-0.05l-1.81,0.99  c-1.07,0.58-2.25,0.76-3.43,0.55l-1.99-0.31c-0.94-0.13-1.91,0.24-2.51,0.99c-0.92,1.1-2.17,1.81-3.58,1.94  c-0.97,0.1-1.78,0.68-2.17,1.57l-0.89,2.01c-0.5,1.07-1.31,1.96-2.33,2.51l-1.94,1.02c-0.84,0.47-1.36,1.33-1.39,2.33l-0.05,2.04  c-0.03,1.2-0.47,2.35-1.23,3.24l-1.23,1.57c-0.63,0.76-0.78,1.75-0.44,2.69c0.21,0.52,0.34,1.18,0.34,1.86  c0,0.78-0.16,1.52-0.44,2.2c-0.16,0.31-0.24,0.68-0.24,1.07c0,0.55,0.18,1.13,0.52,1.6l1.28,1.81c0.68,0.92,1.02,2.04,0.99,3.22  l-0.05,2.2c-0.03,0.97,0.47,1.88,1.31,2.38l1.75,1.05c0.97,0.58,1.75,1.49,2.2,2.62l0.73,1.96c0.34,0.86,1.15,1.54,2.09,1.7  c1.41,0.18,2.67,0.97,3.48,2.12c0.5,0.71,1.31,1.1,2.17,1.1c0.05,0,0.26-0.03,0.29-0.03l2.17-0.21c0.21-0.03,0.39-0.03,0.6-0.03  c0.94,0,1.88,0.26,2.72,0.76l1.88,1.15c0.84,0.52,1.83,0.55,2.69,0.05l1.83-0.97c0.97-0.58,2.2-0.78,3.37-0.58l1.99,0.31  c0.97,0.16,1.91-0.21,2.51-0.97c0.92-1.1,2.2-1.78,3.61-1.94c0.97-0.1,1.78-0.71,2.2-1.6l0.86-1.99c0.5-1.1,1.28-1.96,2.3-2.51  l1.94-1.05c0.86-0.47,1.39-1.33,1.39-2.28l0.05-2.07c0.05-1.2,0.47-2.35,1.23-3.24l1.26-1.57c0.63-0.78,0.78-1.78,0.44-2.67  c-0.03,0-0.03-0.03-0.03-0.03c-0.21-0.63-0.34-1.28-0.34-1.88c0-0.71,0.16-1.44,0.5-2.15C76.24,35.69,76.13,34.64,75.58,33.91z   M57.69,41.81l0.99,9.47L50,47.38l-8.71,3.9l1.02-9.47l-6.38-7.09l9.31-1.96L50,24.49l4.76,8.27l9.31,1.96L57.69,41.81z"/></svg>