<svg xmlns="http://www.w3.org/2000/svg" xmlns:xlink="http://www.w3.org/1999/xlink" version="1.1" x="0px" y="0px" viewBox="0 0 67 83.75" style="enable-background:new 0 0 67 67;" xml:space="preserve"><g><path d="M56.1,15c-0.5,0.3-1.2,0.1-1.4-0.4l0,0c-0.1-0.1-0.4,1.1,1,1.6c1.6,0.6,3.9-0.4,3.9-3c0-3.7-5.2-5.9-8.7-2.9   c-3.3,2.8-2.9,7.7,0.8,10.5c8,5.2,17.4-3.7,12.5-12.5c-2.2-3.4-5.6-5.4-9.3-5.4c0,0,0,0,0,0H12.2c0,0,0,0,0,0c-3.7,0-7.1,2-9.3,5.5   C-2,16.9,7.3,26,15.4,20.7c3.5-2.7,4.1-7.6,0.7-10.4c-3.5-3-8.7-0.8-8.7,2.9c0,2.6,2.3,3.6,3.9,3c0.3-0.1,0.8-0.4,1-0.9   c0.2-0.4,0-0.7,0-0.8c-0.3,0.5-0.9,0.7-1.5,0.5c-0.5-0.3-0.7-0.9-0.4-1.4c0-0.1,0.1-0.2,0.1-0.2c0.3-0.5,0.9-0.8,1.4-0.9   c0.6-0.1,1.2,0,1.6,0.4c1.6,1.1,1.3,4.3-1.5,5.4c-2.9,1.1-6.8-0.8-6.8-5c0-5.6,7.4-8.7,12.2-4.5c4.3,3.7,3.9,10.2-0.9,13.8   c-1.1,0.7-2.3,1.2-3.5,1.6v35.5c-0.4,0-2.4,0-2.2,0c-1.2,0-2.2,1-2.2,2.2c0,1.3,1.1,2.4,2.4,2.4h44.7c1.4,0,2.6-1.2,2.6-2.6   c0-1.1-0.9-2-2-2c-0.2,0-2.6,0-2.5,0V24c-1.2-0.3-2.3-0.8-3.4-1.5c-9.1-7-0.6-19.6,8-14.7c6.3,3.6,2.7,12.8-3.5,10.5   c-2.8-1-3.1-4.2-1.5-5.4C55.3,11.4,57.8,14.1,56.1,15z M26.4,5.9h14.1c0.6,0,1.1,0.5,1.1,1.1S41.1,8,40.6,8H26.4   c-0.6,0-1.1-0.5-1.1-1.1S25.9,5.9,26.4,5.9z M26.4,10.1h14.1c0.6,0,1.1,0.5,1.1,1.1s-0.5,1.1-1.1,1.1H26.4c-0.6,0-1.1-0.5-1.1-1.1   S25.9,10.1,26.4,10.1z M26.4,14.4h14.1c0.6,0,1.1,0.5,1.1,1.1s-0.5,1.1-1.1,1.1H26.4c-0.6,0-1.1-0.5-1.1-1.1S25.9,14.4,26.4,14.4z    M36.7,28.6v24.3c0,1.8-1.4,3.2-3.2,3.2c-1.8,0-3.2-1.4-3.2-3.2V28.6c0-1.8,1.4-3.2,3.2-3.2C35.3,25.4,36.7,26.8,36.7,28.6z    M18.8,28.6c0-1.8,1.4-3.2,3.2-3.2h0c1.8,0,3.2,1.4,3.2,3.2v24.3c0,1.8-1.4,3.2-3.2,3.2h0c-1.8,0-3.2-1.4-3.2-3.2V28.6z M48.2,28.6   v24.3c0,1.8-1.4,3.2-3.2,3.2c-1.8,0-3.2-1.4-3.2-3.2V28.6c0-1.8,1.4-3.2,3.2-3.2C46.8,25.4,48.2,26.8,48.2,28.6z"/></g></svg>