<svg xmlns:dc="http://purl.org/dc/elements/1.1/" xmlns:cc="http://creativecommons.org/ns#" xmlns:rdf="http://www.w3.org/1999/02/22-rdf-syntax-ns#" xmlns:svg="http://www.w3.org/2000/svg" xmlns="http://www.w3.org/2000/svg" xmlns:sodipodi="http://sodipodi.sourceforge.net/DTD/sodipodi-0.dtd" xmlns:inkscape="http://www.inkscape.org/namespaces/inkscape" version="1.1" x="0px" y="0px" viewBox="0 0 100 125"><g transform="translate(0,-952.36218)"><path style="color:#000000;enable-background:accumulate;" d="m 31.471171,975.61221 c -5.61842,0 -10.1875,4.53531 -10.1875,10.125 0,3.37644 1.66438,6.38005 4.21875,8.21875 -6.69431,2.21666 -11.60479,8.05134 -12.15625,15.06254 l -6.5312495,0 a 1.30013,1.30013 0 0 0 -0.25,0 1.3028852,1.3028852 0 1 0 0.25,2.5937 l 33.9062495,0 c -1.58684,-1.9484 -2.5625,-4.394 -2.5625,-7.0937 0,-3.3133 1.44628,-6.29047 3.71875,-8.37504 -1.36155,-0.91253 -2.86392,-1.65611 -4.46875,-2.1875 2.55438,-1.8387 4.21875,-4.84231 4.21875,-8.21875 0,-5.58969 -4.53783,-10.125 -10.15625,-10.125 z m 37.78125,0 c -5.61842,0 -10.1875,4.53531 -10.1875,10.125 0,3.37644 1.66437,6.38005 4.21875,8.21875 -1.76661,0.58497 -3.4064,1.42569 -4.875,2.46875 2.09579,2.06697 3.40625,4.93009 3.40625,8.09379 0,2.6979 -0.95151,5.1451 -2.53125,7.0937 l 33.9375,0 a 1.30013,1.30013 0 1 0 0,-2.5937 l -5.875,0 c -0.55146,-7.0112 -5.46194,-12.84588 -12.15625,-15.06254 2.55438,-1.8387 4.21875,-4.84231 4.21875,-8.21875 0,-5.58969 -4.53782,-10.125 -10.15625,-10.125 z m -19.375,20.0625 a 1.30013,1.30013 0 0 1 -0.25,0.0312 c -4.91944,0 -8.875,3.92904 -8.875,8.81249 0,2.948 1.45672,5.5505 3.6875,7.1563 a 1.30013,1.30013 0 0 1 -0.34375,2.2812 c -6.61444,2.1902 -11.34375,8.1485 -11.34375,15.1563 l 17.59375,0 16.875,0 c 0,-7.0078 -4.72932,-12.9661 -11.34375,-15.1563 a 1.30013,1.30013 0 0 1 -0.34375,-2.2812 c 2.23077,-1.6058 3.6875,-4.2083 3.6875,-7.1563 0,-4.88345 -3.95556,-8.81249 -8.875,-8.81249 a 1.3028852,1.3028852 0 0 1 -0.40625,-0.0312 1.30013,1.30013 0 0 1 -0.0625,0 z" fill="#000000" fill-opacity="1" fill-rule="nonzero" stroke="none" marker="none" visibility="visible" display="inline" overflow="visible"/></g></svg>