<svg xmlns="http://www.w3.org/2000/svg" xmlns:xlink="http://www.w3.org/1999/xlink" version="1.1" x="0px" y="0px" viewBox="0 0 52 65" style="enable-background:new 0 0 52 52;" xml:space="preserve"><g><path d="M31.7,33.5l-8.3-4.1c-0.3-0.2-0.7-0.1-1,0c-0.3,0.2-0.5,0.5-0.5,0.9v8.3c0,0.4,0.2,0.7,0.5,0.9c0.2,0.1,0.4,0.2,0.5,0.2   c0.2,0,0.3,0,0.5-0.1l8.3-4.1c0.4-0.2,0.6-0.5,0.6-0.9C32.2,34,32,33.7,31.7,33.5z"/><polygon points="25.8,14.9 17.8,14.9 16.5,16.5 14.1,19.3 22.1,19.3  "/><polygon points="8.3,16.8 8,17.1 7.6,17.1 2.1,17.1 2.1,19.3 11.2,19.3 15,14.9 10.2,14.9  "/><polygon points="36.7,14.9 28.7,14.9 25,19.3 32.9,19.3  "/><polygon points="8,8.4 8.3,8.7 9.4,9.8 15.7,9.3 12.4,5.4 12.3,5.3 2.1,6.1 2.1,8.4 7.6,8.4  "/><polygon points="49.9,19.3 49.9,15.5 46.6,19.3  "/><polygon points="47.5,14.9 39.5,14.9 35.8,19.3 43.8,19.3  "/><polygon points="9,13.1 9.3,12.7 7.1,10.6 2.1,10.6 2.1,14.9 7.1,14.9  "/><polygon points="45.2,2.4 48.6,6.3 48.7,6.4 49.9,6.3 49.9,2  "/><polygon points="18.4,9.1 25.8,8.4 22.5,4.5 22.4,4.4 14.9,5 18.3,8.9  "/><polygon points="28.5,8.2 35.9,7.5 32.5,3.5 25,4.2 28.4,8.1  "/><path d="M42.1,21.3h-8.2h-2.6H23h-2.6h-8.2H9.6H2.1v25.6c0,1.7,1.4,3.1,3.1,3.1h41.5c1.7,0,3.1-1.4,3.1-3.1V21.3h-5.1H42.1z    M26,44.8c-5.7,0-10.4-4.7-10.4-10.4S20.3,24.1,26,24.1c5.7,0,10.4,4.7,10.4,10.4S31.7,44.8,26,44.8z"/><polygon points="46,6.7 42.7,2.8 42.6,2.6 35.1,3.3 38.6,7.3  "/></g></svg>