<svg xmlns="http://www.w3.org/2000/svg" viewBox="0 0 64 80" x="0px" y="0px"><g data-name="Layer 6"><path d="M10,46.831A20.055,20.055,0,0,0,7.412,37h-1.2A41.484,41.484,0,0,1,7,45H5a39.475,39.475,0,0,0-.765-7.727L4.181,37H3V47h7Z"/><path d="M52.9,3a5,5,0,0,1-4.164,3.926l3.751,25.511A3.018,3.018,0,0,0,55.455,35H61V3Zm1.106,25.1-2-21L54,6.905l2,21ZM59,31H57V7h2Z"/><polygon points="30 17.618 30 22.382 34.764 20 30 17.618"/><path d="M16,5a3,3,0,0,0,2.816-2H13.184A3,3,0,0,0,16,5Z"/><path d="M13.746,31H50.254L46.7,6.806A5,5,0,0,1,44,4.969a4.954,4.954,0,0,1-8,0,4.954,4.954,0,0,1-8,0,4.954,4.954,0,0,1-8,0,5,5,0,0,1-2.7,1.837ZM32,11a9,9,0,1,1-9,9A9.01,9.01,0,0,1,32,11Z"/><path d="M24,5a3,3,0,0,0,2.816-2H21.184A3,3,0,0,0,24,5Z"/><path d="M11.1,3H3V35H8.545a3.018,3.018,0,0,0,2.969-2.563L15.265,6.926A5,5,0,0,1,11.1,3ZM7,31H5V7H7ZM9.995,28.1l-1.99-.19,2-21L12,7.1Z"/><path d="M32,27a7,7,0,1,0-7-7A7.008,7.008,0,0,0,32,27ZM28,16a1,1,0,0,1,1.447-.895l8,4a1,1,0,0,1,0,1.79l-8,4A1,1,0,0,1,28,24Z"/><path d="M48,5a3,3,0,0,0,2.816-2H45.184A3,3,0,0,0,48,5Z"/><path d="M59.765,37.274A39.457,39.457,0,0,0,59,45H57a41.484,41.484,0,0,1,.783-8h-1.2A20.055,20.055,0,0,0,54,46.831V47h7V37H59.82Z"/><path d="M40,5a3,3,0,0,0,2.816-2H37.184A3,3,0,0,0,40,5Z"/><path d="M32,5a3,3,0,0,0,2.816-2H29.184A3,3,0,0,0,32,5Z"/><path d="M46,51V47a2,2,0,0,0-2-2H40a2,2,0,0,0-2,2v4h1a3.974,3.974,0,0,1,3,1.382A3.974,3.974,0,0,1,45,51Z"/><path d="M9,53H5a2,2,0,0,0-2,2v6h8V55A2,2,0,0,0,9,53Z"/><path d="M39,53H35a2,2,0,0,0-2,2v6h8V55A2,2,0,0,0,39,53Z"/><path d="M49,53H45a2,2,0,0,0-2,2v6h8V55A2,2,0,0,0,49,53Z"/><path d="M59,53H55a2,2,0,0,0-2,2v6h8V55A2,2,0,0,0,59,53Z"/><path d="M36,51V47a2,2,0,0,0-2-2H30a2,2,0,0,0-2,2v4h1a3.974,3.974,0,0,1,3,1.382A3.974,3.974,0,0,1,35,51Z"/><path d="M26,51V47a2,2,0,0,0-2-2H20a2,2,0,0,0-2,2v4h1a3.974,3.974,0,0,1,3,1.382A3.974,3.974,0,0,1,25,51Z"/><path d="M19,53H15a2,2,0,0,0-2,2v6h8V55A2,2,0,0,0,19,53Z"/><path d="M29,53H25a2,2,0,0,0-2,2v6h8V55A2,2,0,0,0,29,53Z"/></g></svg>