<svg xmlns="http://www.w3.org/2000/svg" viewBox="0 0 64 80" x="0px" y="0px"><g data-name="4-image"><polygon points="7 5 7 13 59 13 59 49 63 49 63 5 7 5"/><circle cx="22" cy="38" r="4"/><path d="M52,20H6V54H52ZM29.21,40.99c2.19,2.36,1.98,6.2,1.98,6.2s-3.84.21-6.2-1.98C24.86,48.43,22,51,22,51s-2.86-2.57-2.99-5.79c-2.36,2.19-6.2,1.98-6.2,1.98s-.21-3.84,1.98-6.2C11.57,40.86,9,38,9,38s2.57-2.86,5.79-2.99c-2.19-2.36-1.98-6.2-1.98-6.2s3.84-.21,6.2,1.98C19.14,27.57,22,25,22,25s2.86,2.57,2.99,5.79c2.36-2.19,6.2-1.98,6.2-1.98s.21,3.84-1.98,6.2C32.43,35.14,35,38,35,38S32.43,40.86,29.21,40.99ZM45,31a4,4,0,1,1,4-4A4,4,0,0,1,45,31Z"/><path d="M1,59H57V15H1ZM4,19a1,1,0,0,1,1-1H53a1,1,0,0,1,1,1V55a1,1,0,0,1-1,1H5a1,1,0,0,1-1-1Z"/></g></svg>