<svg xmlns="http://www.w3.org/2000/svg" data-name="Layer 1" viewBox="0 0 100 125" x="0px" y="0px"><title>Artboard 21</title><path d="M5.29,60.28V6.63A5.63,5.63,0,0,1,10.92,1H67a15.33,15.33,0,0,0-2.05,18.58,10.15,10.15,0,0,0-2.48,1.5l-6.3,5.2L50,21.41a10.18,10.18,0,1,0-12.46,16.1L50,47.35a10.18,10.18,0,0,0,11.53.73V65.91H10.92A5.63,5.63,0,0,1,5.29,60.28ZM78.14,21.13a9.5,9.5,0,1,0-9.5-9.5A9.5,9.5,0,0,0,78.14,21.13ZM84.3,99a4.51,4.51,0,0,0,4.51-4.51v-37a7.32,7.32,0,0,0,5.9-7.18V32a7.32,7.32,0,0,0-7.32-7.32H68.93a4.23,4.23,0,0,0-2.7,1l-10,8.25L46.3,26.07A4.25,4.25,0,0,0,40,27.19a4.37,4.37,0,0,0,1.13,5.65l12.49,9.84A4.25,4.25,0,0,0,59,42.63l8.46-7V94.49a4.51,4.51,0,1,0,9,0V68.12a1.65,1.65,0,0,1,1.93-1.63,1.71,1.71,0,0,1,1.37,1.72V94.49A4.51,4.51,0,0,0,84.3,99Z"/></svg>