<svg xmlns="http://www.w3.org/2000/svg" xmlns:xlink="http://www.w3.org/1999/xlink" version="1.1" x="0px" y="0px" viewBox="0 0 128 160" enable-background="new 0 0 128 128" xml:space="preserve"><title>miscellaneous 97 solid</title><path d="M86,12L66,0.5c-1.2-0.7-2.7-0.7-4,0L42,12c-1.2,0.7-2,2-2,3.5v23c0,1.4,0.8,2.8,2,3.5l20,11.5c1.2,0.7,2.7,0.7,4,0L86,42  c1.2-0.7,2-2,2-3.5v-23C88,14.1,87.2,12.7,86,12z"/><path d="M86,86L66,74.5c-1.2-0.7-2.7-0.7-4,0L42,86c-1.2,0.7-2,2-2,3.5v23c0,1.4,0.8,2.8,2,3.5l20,11.5c1.2,0.7,2.7,0.7,4,0L86,116  c1.2-0.7,2-2,2-3.5v-23C88,88.1,87.2,86.7,86,86z"/><path d="M126,49l-20-11.5c-1.2-0.7-2.7-0.7-4,0L82,49c-1.2,0.7-2,2-2,3.5v23c0,1.4,0.8,2.8,2,3.5l20,11.5c1.2,0.7,2.7,0.7,4,0  L126,79c1.2-0.7,2-2,2-3.5v-23C128,51.1,127.2,49.7,126,49z"/><path d="M46,49L26,37.5c-1.2-0.7-2.7-0.7-4,0L2,49c-1.2,0.7-2,2-2,3.5v23c0,1.4,0.8,2.8,2,3.5l20,11.5c1.2,0.7,2.7,0.7,4,0L46,79  c1.2-0.7,2-2,2-3.5v-23C48,51.1,47.2,49.7,46,49z"/></svg>