<svg xmlns="http://www.w3.org/2000/svg" xmlns:xlink="http://www.w3.org/1999/xlink" version="1.1" x="0px" y="0px" viewBox="0 0 32 40" enable-background="new 0 0 32 32" xml:space="preserve"><g><path d="M30,16h-8c-1.105,0-2,0.895-2,2v12c0,1.104,0.895,2,2,2h8c1.105,0,2-0.896,2-2V18C32,16.895,31.105,16,30,16z M16,0H2   C0.895,0,0,0.895,0,2v28c0,1.104,0.895,2,2,2h14c1.105,0,2-0.896,2-2V2C18,0.895,17.105,0,16,0z M30,0h-8c-1.105,0-2,0.895-2,2v10   c0,1.104,0.895,2,2,2h8c1.105,0,2-0.896,2-2V2C32,0.895,31.105,0,30,0z"/></g></svg>