<svg xmlns="http://www.w3.org/2000/svg" xmlns:xlink="http://www.w3.org/1999/xlink" version="1.1" x="0px" y="0px" viewBox="0 0 60 75" style="enable-background:new 0 0 60 60;" xml:space="preserve"><path d="M21.6904907,8.5356445c0.2548828,0.4882813,0.8583984,0.6806641,1.3486328,0.4233398  c0.5214844-0.2719727,12.8505859-6.5200195,20.9355469,4.5253906c0.1953125,0.2675781,0.4990234,0.4091797,0.8076172,0.4091797  c0.2050781,0,0.4111328-0.0625,0.5898438-0.1928711c0.4453125-0.3261719,0.5419922-0.9521484,0.2158203-1.3979492  C36.4766235-0.1459961,22.2539673,7.1123047,22.1113892,7.1870117C21.6231079,7.4433594,21.4346313,8.046875,21.6904907,8.5356445z"/><path d="M46.6084595,27.5537109c0.0498047,0,0.1005859-0.003418,0.1513672-0.0112305  c0.5449219-0.0830078,0.9208984-0.5908203,0.8388672-1.1362305c-0.0673828-0.4482422-1.7724609-11.0131836-12.5380859-14.8183594  c-10.6542969-3.769043-20.5625,7.1088867-20.9794922,7.5727539c-0.3681641,0.4116211-0.3339844,1.043457,0.078125,1.4121094  c0.4111328,0.3691406,1.0419922,0.3339844,1.4121094-0.0771484c0.0927734-0.1044922,9.4140625-10.3486328,18.8232422-7.0219727  c9.609375,3.3969727,11.1650391,12.831543,11.2265625,13.2314453  C45.6963501,27.1992188,46.1231079,27.5537109,46.6084595,27.5537109z"/><path d="M37.2734985,39.7729492c0.5244141,0.1665039,1.0869141-0.1220703,1.2548828-0.6489258  c0.0742188-0.234375,1.8046875-5.8046875-0.7236328-10.5576172c-2.1347656-4.015625-5.5703125-6.1074219-9.4335938-5.7470703  c-4.7480469,0.4477539-9.0966797,4.4804688-10.8203125,10.0351563c-3.0380859,9.7880859,2.3515625,18.7900391,2.5830078,19.168457  c0.1884766,0.3085938,0.5166016,0.4790039,0.8535156,0.4790039c0.1777344,0,0.3574219-0.0473633,0.5195313-0.1464844  c0.4716797-0.2871094,0.6210938-0.9018555,0.3349609-1.3735352c-0.0517578-0.0854492-5.1464844-8.6264648-2.3808594-17.534668  c1.4873047-4.7929688,5.1435547-8.2636719,9.0976563-8.6367188c3.0498047-0.2851563,5.7167969,1.3789063,7.4804688,4.6953125  c2.1259766,3.9970703,0.5986328,8.9624023,0.5830078,9.012207C36.4561157,39.0439453,36.7471313,39.605957,37.2734985,39.7729492z"/><path d="M29.6123657,16.3251953c-8.6630859-0.5976563-16.3496094,8.0463867-17.1533203,19.3100586  c-0.1796875,2.5234375-0.0078125,5.0102539,0.5126953,7.3911133c0.1171875,0.5390625,0.6523438,0.8808594,1.1894531,0.7636719  c0.5400391-0.1176758,0.8818359-0.6508789,0.7636719-1.1904297c-0.4785156-2.1943359-0.6376953-4.4892578-0.4716797-6.8217773  c0.7255859-10.1640625,7.4580078-17.9975586,15.0166016-17.4575195c7.5556641,0.5385742,13.1123047,9.2460938,12.3857422,19.4926758  l0.0117188,1.0395508c0.0244141,2.171875-1.7236328,3.9697266-3.8955078,4.0073242  c-1.0185547,0.0249023-2.0820313-0.3842773-2.8476563-1.1362305c-0.7646484-0.7509766-1.1855469-1.7553711-1.1855469-2.8271484  v-4.456543c0-2.9702148-2.4160156-5.3862305-5.3867188-5.3862305c-2.2089844,0-4.1660156,1.3129883-4.9853516,3.3447266  c-1.7119141,4.2475586-4.4980469,14.934082,6.5917969,22.4145508c0.171875,0.1157227,0.3662109,0.1708984,0.5585938,0.1708984  c0.3212891,0,0.6367188-0.1542969,0.8300781-0.440918c0.3085938-0.4575195,0.1875-1.0791016-0.2695313-1.3881836  c-9.5244141-6.4238281-7.7568359-15.293457-5.8554688-20.0083008c0.5126953-1.2714844,1.7412109-2.0927734,3.1298828-2.0927734  c1.8671875,0,3.3867188,1.519043,3.3867188,3.3862305v4.456543c0,1.612793,0.6337891,3.1235352,1.7841797,4.2539063  c1.1503906,1.1313477,2.6777344,1.7348633,4.2841797,1.7094727c3.2675781-0.0566406,5.8964844-2.7617188,5.8603516-6.0297852  l-0.0146484-0.9570313C44.6553345,26.6083984,38.2676392,16.9423828,29.6123657,16.3251953z"/><path d="M28.375061,34.265625c-0.5439453-0.1235352-1.0732422,0.2167969-1.1943359,0.7553711  c-0.0664063,0.2929688-1.5791016,7.2368164,1.9472656,11.8076172c1.8349609,2.3779297,4.6582031,3.6489258,8.390625,3.7788086  c0.0126953,0.0004883,0.0244141,0.0004883,0.0361328,0.0004883c0.5361328,0,0.9794922-0.425293,0.9980469-0.965332  c0.0195313-0.5517578-0.4121094-1.0151367-0.9638672-1.0341797c-3.1064453-0.1074219-5.4189453-1.1152344-6.8720703-2.9951172  c-2.9541016-3.8198242-1.5986328-10.0908203-1.5849609-10.1538086C29.2520142,34.9208984,28.913147,34.3862305,28.375061,34.265625z  "/></svg>