<svg xmlns="http://www.w3.org/2000/svg" xmlns:xlink="http://www.w3.org/1999/xlink" version="1.1" x="0px" y="0px" viewBox="0 0 512 640" style="enable-background:new 0 0 512 512;" xml:space="preserve"><g><g><path d="M66.069,346.761H36c-7.732,0-14-6.268-14-14V159.041c0-7.732,6.268-14,14-14h30.069c7.732,0,14,6.268,14,14v173.721    C80.069,340.493,73.801,346.761,66.069,346.761z"/><path d="M445.931,346.489H476c7.732,0,14-6.268,14-14V158.769c0-7.732-6.268-14-14-14h-30.069c-7.732,0-14,6.268-14,14v173.721    C431.931,340.221,438.199,346.489,445.931,346.489z"/><path d="M333.783,169.005l-21.65-19.159c-17.863-20.761-50.405-23.037-70.997-4.978l-65.219,57.193    c-11.109,9.741-12.147,27.472-2.182,38.433c9.796,10.774,26.74,11.8,37.793,2.269l56.82-49.55    c3.564-3.107,8.915-2.865,12.184,0.551l122.18,127.534h7.635V169.005H333.783z"/><path d="M358.478,313.588l-90.545-94.813l-42.84,38.93c-18.974,17.348-48.425,16.005-65.741-2.998l0,0    c-17.275-18.958-15.935-48.325,2.994-65.631l46.499-42.513c-26.086-13.626-59.12-5.78-75.907,19.641h-30.272v161.802h26.552    l43.033,43.992c7.098,7.87,18.668,9.844,27.974,4.772h0c12.369-6.741,15.638-22.777,7.417-33.782l22.452,25.091    c6.273,7.011,16.325,9.229,24.967,5.509l0.555-0.239c14.296-6.153,18.393-24.384,8.146-35.992    c-14.927-16.911-28.658-33.036-28.658-33.036l43.128,48.63c7.066,7.896,18.584,10,27.985,5.112l0.564-0.293    c14.138-7.352,15.422-27.012,4.7-38.673c-20.58-22.38-42.901-48.252-42.901-48.252s39.364,42.262,59.932,64.224    c6.44,6.876,16.449,9.076,25.178,5.535l0.594-0.241C365.937,333.107,363.536,321.638,358.478,313.588z"/></g></g></svg>