<svg xmlns="http://www.w3.org/2000/svg" data-name="Layer 1" viewBox="0 0 128 160" x="0px" y="0px"><title>miscellaneous 222_expandline</title><path d="M56.12108,92.1797c.2031.0566.4082.1113.6133.165a4.94206,4.94206,0,0,0,4.9267,4.6573h4.6768a4.94254,4.94254,0,0,0,4.9277-4.6592c.2051-.0537.4092-.1065.6123-.1631a4.93275,4.93275,0,0,0,6.5987,1.5664l4.0478-2.334A4.9477,4.9477,0,0,0,84.46,84.9063q.22557-.21975.44528-.4444a4.93589,4.93589,0,0,0,6.5-1.9287L93.748,78.4746a4.93441,4.93441,0,0,0-1.57032-6.5957c.0557-.2031.1104-.4062.1621-.6113A4.94271,4.94271,0,0,0,97,66.3398V61.6621a4.94131,4.94131,0,0,0-4.66022-4.9277c-.0527-.2051-.1064-.4082-.163-.6114a4.93546,4.93546,0,0,0,1.5683-6.6015l-2.3359-4.0469a4.93649,4.93649,0,0,0-6.5039-1.9346c-.1465-.1494-.2959-.2978-.44528-.4443a4.94159,4.94159,0,0,0-1.93362-6.5039l-4.0528-2.3398A4.93694,4.93694,0,0,0,71.877,35.8242c-.20322-.0576-.40632-.1113-.61142-.165a4.94006,4.94006,0,0,0-4.9277-4.6572h-4.6768a4.93983,4.93983,0,0,0-4.9267,4.6572c-.2051.0537-.4092.1074-.6123.165a4.93963,4.93963,0,0,0-6.585-1.5801l-4.0635,2.3497A4.92956,4.92956,0,0,0,43.54,43.0957q-.22562.21975-.44532.4443a4.93538,4.93538,0,0,0-6.5019,1.9327L34.252,49.5273a4.93255,4.93255,0,0,0,1.57028,6.5938c-.0567.2031-.1114.4082-.1631.6133A4.94042,4.94042,0,0,0,31,61.6621l.001,4.6777a4.94169,4.94169,0,0,0,4.65818,4.9278c.0517.2051.1064.4082.1631.6113a4.93339,4.93339,0,0,0-1.5674,6.5996l2.3359,4.0469a4.94486,4.94486,0,0,0,6.503,1.9385c.1464.1474.2949.2959.4453.4424a4.93283,4.93283,0,0,0,1.9316,6.5019l4.0566,2.3398a4.93075,4.93075,0,0,0,6.5938-1.5683Zm-1.5596-4.7041a.57743.57743,0,0,0-.4922.2724l-1.2656,2.1944a.94494.94494,0,0,1-1.2783.3408l-4.0518-2.335a.937.937,0,0,1-.3408-1.2802l1.2695-2.1983a.5748.5748,0,0,0-.1396-.7177A25.38025,25.38025,0,0,1,44.249,79.7363a.57587.57587,0,0,0-.71682-.1367L41.333,80.8691a.9479.9479,0,0,1-1.27832-.3437l-2.3379-4.0508a.9332.9332,0,0,1,.3418-1.2764L40.251,73.9297a.57029.57029,0,0,0,.23828-.6895,25.10218,25.10218,0,0,1-1.4629-5.4882.57127.57127,0,0,0-.5498-.4766h-2.5401a.93623.93623,0,0,1-.93548-.9356L35,61.6621a.93621.93621,0,0,1,.93548-.9355h2.5411a.5731.5731,0,0,0,.5498-.4786,25.08329,25.08329,0,0,1,1.4638-5.4882.57333.57333,0,0,0-.23918-.6895l-2.19242-1.2685a.931.931,0,0,1-.3418-1.2745l2.3379-4.0527a.94374.94374,0,0,1,1.27832-.3398l2.19918,1.2695a.57386.57386,0,0,0,.71682-.1406A25.47449,25.47449,0,0,1,48.26558,44.25a.57652.57652,0,0,0,.1367-.7178l-1.2695-2.1982a.934.934,0,0,1,.3418-1.2783l4.0508-2.3409a.9498.9498,0,0,1,1.2783.3428s1.2627,2.1904,1.2656,2.1944a.57352.57352,0,0,0,.6905.2382A25.18078,25.18078,0,0,1,60.248,39.0264a.57115.57115,0,0,0,.47858-.5479v-2.542a.93324.93324,0,0,1,.9345-.9345h4.6768a.93409.93409,0,0,1,.9355.9345v2.542a.5702.5702,0,0,0,.47862.5479,25.18049,25.18049,0,0,1,5.48818,1.4638.5746.5746,0,0,0,.6895-.2382l1.2666-2.1944a.94848.94848,0,0,1,1.2773-.3428l4.0518,2.3389a.93626.93626,0,0,1,.3418,1.2783l-1.2695,2.2002a.57553.57553,0,0,0,.1377.7178A25.45919,25.45919,0,0,1,83.75,48.2637a.57506.57506,0,0,0,.71778.1406L86.667,47.1348a.94266.94266,0,0,1,1.27828.3398l2.3379,4.0508a.93317.93317,0,0,1-.3418,1.2764l-2.1953,1.2685a.5755.5755,0,0,0-.2363.6895,25.14173,25.14173,0,0,1,1.4619,5.4882.574.574,0,0,0,.5508.4786h2.542A.93624.93624,0,0,1,93,61.6621v4.6777a.93626.93626,0,0,1-.93552.9356h-2.542a.574.574,0,0,0-.5508.4766,25.073,25.073,0,0,1-1.4619,5.4902.5721.5721,0,0,0,.2363.6875l2.1953,1.2685a.93317.93317,0,0,1,.3418,1.2764l-2.3379,4.0527a.94779.94779,0,0,1-1.27828.3418l-2.19922-1.2695a.57686.57686,0,0,0-.71778.1367,25.27046,25.27046,0,0,1-4.01462,4.0157.57542.57542,0,0,0-.1377.7177l1.2695,2.1983a.93846.93846,0,0,1-.3418,1.2802l-4.0518,2.337a.94605.94605,0,0,1-1.2773-.3409l-1.2666-2.1963a.57654.57654,0,0,0-.6895-.2363A24.97741,24.97741,0,0,1,67.752,88.9756a.57175.57175,0,0,0-.47862.5478v2.542a.93588.93588,0,0,1-.9355.9366h-4.6768a.935.935,0,0,1-.9345-.9366v-2.542a.57271.57271,0,0,0-.47858-.5478,24.97147,24.97147,0,0,1-5.48922-1.4639A.54358.54358,0,0,0,54.56148,87.4756Z"/><path d="M78,64.002a14,14,0,1,0-14,14A14.01513,14.01513,0,0,0,78,64.002Zm-24,0a10,10,0,1,1,10,10A10.01172,10.01172,0,0,1,54,64.002Z"/><path d="M4,64C4,35.4551,26.35348,12.1182,54.22558,11.0459v5.0059C29.04,17.1182,8.873,38.2129,8.873,64a2,2,0,0,0,4,0c0-23.5811,18.37308-42.8838,41.35258-43.9482V25.999a2.00136,2.00136,0,0,0,1.1113,1.793,2.02339,2.02339,0,0,0,2.0996-.2002l15.7744-12a2.00105,2.00105,0,0,0,0-3.1846l-15.7744-12a2.00053,2.00053,0,0,0-3.2109,1.5918V7.0459C24.14648,8.1201,0,33.248,0,64a2,2,0,0,0,4,0ZM58.22558,6.0342l10.4707,7.9648-10.4707,7.9678Z"/><path d="M126,62.002a1.99944,1.99944,0,0,0-2,2c0,28.5449-22.35352,51.8818-50.22562,52.9541v-5.0059C98.96,110.8838,119.127,89.7891,119.127,64.002a2,2,0,0,0-4,0c0,23.581-18.37312,42.8837-41.35262,43.9482v-5.9473a1.99981,1.99981,0,0,0-3.2109-1.5927l-15.7744,12a2.001,2.001,0,0,0,0,3.1845l15.7744,12a2.00053,2.00053,0,0,0,3.2109-1.5918v-5.0468C103.85348,119.8818,128,94.7539,128,64.002A1.99946,1.99946,0,0,0,126,62.002ZM69.77438,121.9678l-10.4707-7.9649,10.4707-7.9677Z"/><path d="M57.44628,123.6494l-.4746-.0527a2,2,0,1,0-.4668,3.9726s.66212.0684.7334.0684a1.99969,1.99969,0,0,0,.208-3.9883Z"/><path d="M18.99218,103.6797A2.00024,2.00024,0,0,0,16,106.335c.22848.2578.457.5136.68848.7675a2.02231,2.02231,0,0,0,2.8252.1348,2.002,2.002,0,0,0,.1338-2.8271C19.42768,104.168,19.209,103.9258,18.99218,103.6797Z"/><path d="M33.166,115.4854c-.27732-.168-.55472-.336-.82812-.5059a1.9997,1.9997,0,1,0-2.1211,3.3906c.2949.1826.5918.3653.8906.544a2.01958,2.01958,0,0,0,2.7442-.6846A1.99946,1.99946,0,0,0,33.166,115.4854Z"/><path d="M9.875,89.9277c-.14062-.2929-.27932-.5849-.415-.8828a2.00015,2.00015,0,0,0-3.63192,1.6768q.2169.47025.4395.9346A2.00009,2.00009,0,1,0,9.875,89.9277Z"/><path d="M25.251,109.8154a2,2,0,1,0-2.58012,3.0567c.2646.2226.5293.4433.7969.6611a1.99951,1.99951,0,1,0,2.5351-3.0928Q25.62506,110.1299,25.251,109.8154Z"/><path d="M13.69428,96.7158a1.99982,1.99982,0,0,0-3.3554,2.1768q.2841.43935.57612.8691a2.02285,2.02285,0,0,0,2.77738.5371,2.0006,2.0006,0,0,0,.5371-2.7773C14.04878,97.2539,13.87008,96.9873,13.69428,96.7158Z"/><path d="M3.03518,75.5332A2.00035,2.00035,0,0,0,4.708,73.252c-.04882-.3204-.09672-.6426-.14062-.9649a2.00023,2.00023,0,1,0-3.9629.5469q.0717.5127.1504,1.0254A2.03483,2.03483,0,0,0,3.03518,75.5332Z"/><path d="M40.98828,119.4316c-.2988-.125-.5977-.2519-.8945-.3808a2.00075,2.00075,0,0,0-1.6016,3.667q.48045.2079.9629.4101a2.02122,2.02122,0,0,0,2.6142-1.083A2.00079,2.00079,0,0,0,40.98828,119.4316Z"/><path d="M6.67768,81.7813q-.14353-.4659-.2802-.9317a2.00039,2.00039,0,0,0-3.8399,1.1231q.145.495.2979.9892a2.0247,2.0247,0,0,0,2.5009,1.3213A2.00027,2.00027,0,0,0,6.67768,81.7813Z"/><path d="M49.30468,122.1904c-.3145-.0781-.6289-.1601-.9404-.2461a1.99992,1.99992,0,1,0-1.0469,3.8604q.50535.1392,1.01462.2646a1.9995,1.9995,0,0,0,.97268-3.8789Z"/><path d="M30.17478,106.2393a2,2,0,0,0,2.4395-3.17c-.2686-.207-.5332-.417-.7959-.6269a2,2,0,1,0-2.5079,3.1162Q29.73978,105.90135,30.17478,106.2393Z"/><path d="M19.94038,88.6758a2.0005,2.0005,0,0,0-3.4453,2.0342c.1846.3115.3721.625.5615.9326a2.02171,2.02171,0,0,0,2.751.6582,2.00064,2.00064,0,0,0,.6572-2.752C20.28708,89.2598,20.11228,88.9697,19.94038,88.6758Z"/><path d="M16.41208,81.3711q-.18163-.46875-.3545-.9453a1.99994,1.99994,0,1,0-3.7597,1.3652c.125.3457.2529.6875.3857,1.0283a2.0248,2.0248,0,0,0,2.5879,1.1407A2.0007,2.0007,0,0,0,16.41208,81.3711Z"/><path d="M22.95018,99.5352a1.99954,1.99954,0,0,0,2.9746-2.6729q-.3384-.375-.6689-.7598a1.99986,1.99986,0,1,0-3.0313,2.6094Q22.58353,99.128,22.95018,99.5352Z"/><path d="M46.61038,114.8447a13.58769,13.58769,0,0,0,1.623.4043,2.00062,2.00062,0,0,0,.5635-3.9199c-.3242-.0937-.6475-.1934-.9678-.2959a2.0008,2.0008,0,0,0-1.2187,3.8115Z"/><path d="M38.50588,111.5166a1.99986,1.99986,0,0,0,1.8144-3.5645q-.4497-.23-.8945-.4687a1.99945,1.99945,0,1,0-1.8985,3.5195C37.85058,111.1777,38.17678,111.3506,38.50588,111.5166Z"/><path d="M11.51458,70.0781a2.00217,2.00217,0,0,0-1.708,2.2559q.07185.5127.15042,1.0254a2.026,2.026,0,0,0,2.28028,1.6738,2.0005,2.0005,0,0,0,1.6729-2.2812c-.0489-.3204-.0967-.6426-.1407-.9649A2.0024,2.0024,0,0,0,11.51458,70.0781Z"/><path d="M71.13958,3.9893l.4747.0527a1.99952,1.99952,0,1,0,.4668-3.9717s-.6622-.0693-.7334-.0693a1.99969,1.99969,0,0,0-.2081,3.9883Z"/><path d="M109.59378,23.959a2.00021,2.00021,0,0,0,2.9921-2.6553c-.2285-.2578-.457-.5137-.6884-.7676a2.0223,2.0223,0,0,0-2.8252-.1347,2.00193,2.00193,0,0,0-.1338,2.8271C109.15818,23.4707,109.377,23.7129,109.59378,23.959Z"/><path d="M95.41988,12.1533c.2774.169.5547.336.82812.5059a1.9997,1.9997,0,1,0,2.12108-3.3906c-.2949-.1827-.5918-.3653-.8906-.545a2,2,0,0,0-2.0586,3.4297Z"/><path d="M118.71088,37.7109c.1407.293.2793.585.41512.8829a2.00009,2.00009,0,0,0,3.63178-1.6768q-.21675-.47025-.4394-.9346a2.02158,2.02158,0,0,0-2.668-.9404A2.00086,2.00086,0,0,0,118.71088,37.7109Z"/><path d="M103.335,17.8242a2.00033,2.00033,0,0,0,2.58-3.0576c-.26462-.2227-.52932-.4424-.79682-.6621a2.00027,2.00027,0,0,0-2.53518,3.0947C102.835,17.4053,103.08588,17.6123,103.335,17.8242Z"/><path d="M114.89158,30.9229a1.99987,1.99987,0,0,0,3.3555-2.1768q-.28425-.4395-.5762-.8701a2.02358,2.02358,0,0,0-2.7773-.5362,2.00093,2.00093,0,0,0-.5372,2.7774C114.53708,30.3838,114.71578,30.6514,114.89158,30.9229Z"/><path d="M125.55078,52.1055a1.99993,1.99993,0,0,0-1.6729,2.2812c.0489.3203.0967.6426.1407.9649a2.00025,2.00025,0,1,0,3.9628-.5479q-.0717-.5112-.1503-1.0244A2.0355,2.0355,0,0,0,125.55078,52.1055Z"/><path d="M87.59768,8.207q.4482.1875.8945.3809a2.00075,2.00075,0,0,0,1.6016-3.667q-.4806-.20805-.9629-.4102a2.00083,2.00083,0,0,0-1.5332,3.6963Z"/><path d="M121.90818,45.8574c.0957.3096.1895.6211.2803.9307a2.00034,2.00034,0,1,0,3.8398-1.1231q-.145-.49365-.2978-.9882a2.024,2.024,0,0,0-2.501-1.3213A2.00029,2.00029,0,0,0,121.90818,45.8574Z"/><path d="M79.28128,5.4492c.3144.0772.6289.1592.9404.2461a2.00084,2.00084,0,0,0,1.0469-3.8623q-.5055-.1377-1.0147-.2627a1.99949,1.99949,0,1,0-.9726,3.8789Z"/><path d="M98.41108,21.3994a2.00033,2.00033,0,0,0-2.4394,3.1709c.2685.2061.5332.416.7959.627a2.00037,2.00037,0,0,0,2.5078-3.1172Q98.84623,21.73735,98.41108,21.3994Z"/><path d="M108.64548,38.9629a2.0005,2.0005,0,0,0,3.4453-2.0342c-.1845-.3115-.372-.625-.5615-.9326a2.02171,2.02171,0,0,0-2.751-.6582,2.00045,2.00045,0,0,0-.6572,2.7519C108.29878,38.3789,108.47358,38.6689,108.64548,38.9629Z"/><path d="M112.17378,46.2676q.18165.46875.3545.9453a2,2,0,0,0,3.7598-1.3652q-.1875-.51855-.3858-1.0274a2.02354,2.02354,0,0,0-2.5878-1.1416A2.00067,2.00067,0,0,0,112.17378,46.2676Z"/><path d="M105.63568,28.1035a1.99954,1.99954,0,0,0-2.9746,2.6729q.3384.375.669.7597a1.99979,1.99979,0,1,0,3.0312-2.6093C106.12208,28.6494,105.88088,28.374,105.63568,28.1035Z"/><path d="M81.97558,12.7939a13.60728,13.60728,0,0,0-1.6231-.4043,2.00072,2.00072,0,0,0-.5634,3.92c.3242.0937.6474.1933.9677.2949a2.00038,2.00038,0,1,0,1.2188-3.8106Z"/><path d="M90.08008,16.1221a1.99983,1.99983,0,1,0-1.8145,3.5644c.2998.1533.5987.3086.8946.4688a1.99947,1.99947,0,1,0,1.8984-3.5196C90.73538,16.4609,90.40918,16.2881,90.08008,16.1221Z"/><path d="M116.34858,52.6055a1.99976,1.99976,0,0,0-1.6728,2.2812c.0488.3203.0967.6426.1406.9649a2.0003,2.0003,0,1,0,3.9629-.5479q-.07185-.5112-.1504-1.0244A2.02677,2.02677,0,0,0,116.34858,52.6055Z"/></svg>