<svg xmlns="http://www.w3.org/2000/svg" xmlns:xlink="http://www.w3.org/1999/xlink" version="1.1" x="0px" y="0px" viewBox="0 0 68 85" enable-background="new 0 0 68 68" xml:space="preserve"><g><g><path d="M22.5215607,43.1719704l-3.5173264,7.4126663l3.1294918,1.4164505    c0.3159008,0.1433525,0.5485764,0.4234467,0.6307755,0.7608452c0.0827141,0.3368835,0.0055199,0.6930847-0.2089958,0.965992    l-2.3636417,3.007637L24.662796,66h3.6361637l-3.8631287-23.7945366L22.5215607,43.1719704z"/><path d="M17.9809418,55.8936691l1.9093304-2.4292831l-2.8648605-1.2962685    c-0.2756691-0.1251259-0.4901199-0.3556213-0.5943279-0.6400795c-0.1042099-0.284523-0.089901-0.5988197,0.0402336-0.872818    l2.7630253-5.8236656l-10.4891548,5.295433L5.1459188,66h17.0094337l-4.3034515-8.9176102    C17.664463,56.6942368,17.7146435,56.2327347,17.9809418,55.8936691z"/><path d="M41.4408379,41.135006l-0.8428535-0.4259491c-1.0644875,0.9831886-2.2324829,1.7700844-3.4949303,2.2710495    c-0.7279243,0.7783623-1.336628,1.429348-1.3770523,1.472599l4.6613197,3.1857033L41.4408379,41.135006z"/><path d="M26.5583286,41.1349449l1.0531311,6.5016022c0.2785549-0.1900673,4.5528126-3.1067123,4.6589451-3.1790924    l-1.4013081-1.5012207c-1.2410812-0.5061607-2.3951492-1.2867661-3.4465485-2.2580185    C27.0139236,40.9047089,26.6109467,41.1083794,26.5583286,41.1349449z"/><path d="M59.2542992,50.1269875L48.7615509,44.829567l2.7583427,5.8267441    c0.1295547,0.2734871,0.1438637,0.587719,0.0396538,0.871727c-0.1042099,0.283947-0.3181458,0.5143738-0.5938148,0.6395683    l-2.8565826,1.2961998l1.9099083,2.430378c0.2663002,0.3385506,0.3164787,0.8000526,0.1290436,1.1882057L45.8446465,66h17.0094337    L59.2542992,50.1269875z"/><polygon points="38.6393738,49.174408 37.1410408,50.9127274 39.032917,55.9984589 39.98909,50.0965691   "/><polygon points="29.271946,49.2375488 28.0055828,50.1010628 28.9642582,56.0064125 30.8495255,50.9385872   "/><path d="M45.4444962,53.7279243c-0.2145157-0.2729073-0.2917099-0.6291084-0.2095108-0.965992    c0.0827141-0.3368835,0.3148079-0.6169777,0.6307106-0.7603302l3.1217918-1.4163895l-3.5089188-7.4131165l-1.906765-0.9626541    l-1.2380638,7.5431862c-0.0002556,0.0017967-0.0012207,0.003273-0.0015411,0.0050697L39.7009735,66h3.6366158l4.4705467-9.2644386    L45.4444962,53.7279243z"/><path d="M34.9946747,49.9434013l1.7683525-2.0508842c0.1131935,0.0767441-2.6541328-1.7992821-2.7673264-1.8759651    c0.1848679-0.1270523-2.7153492,1.8658257-2.8285427,1.9436607l1.8111515,1.9528999    c0.2900429,0.3125648,0.378788,0.7614212,0.2299156,1.161129l-3.5121269,9.4403229L30.586628,66h6.8260384l0.8894386-5.4901848    l-3.5103302-9.4355736C34.6478424,50.6882668,34.7255516,50.25494,34.9946747,49.9434013z"/></g><path d="M45.3753853,22.9636135c3.6796722-6.1187744,2.4706116-12.5319557,2.4075317-12.8052483   c-0.0209808-0.1366787-0.0736008-0.2733574-0.1576614-0.3889885c-3.4799156-5.151566-7.569622-7.7693791-12.1324425-7.7693791   c-5.8033237,0-10.4081745,4.2789397-11.512064,5.4038758c-1.5560188,0.3468943-2.6914787,1.1774893-3.3748074,2.4811344   c-1.8923893,3.5429926,0.2943401,9.7248459,1.7031574,12.9839573c-2.1422806,1.8932343-1.3233852,6.804142,1.2825966,7.811409   c1.902914,5.309227,5.8769894,10.8077507,10.4082394,10.8077507c5.0884895,0,8.7786217-6.4026566,10.313591-10.5869465   C47.041996,29.931591,47.7254982,24.7694187,45.3753853,22.9636135z M43.4935188,28.9457111   c-0.4416084,0.0209827-0.8305969,0.3048649-0.9672737,0.7148991c-1.6400795,4.836113-5.0884247,9.7248459-8.52631,9.7248459   c-3.4799137,0-6.9598293-4.9833145-8.5999088-9.9140778c-0.1366787-0.4100361-0.5046215-0.6939163-0.9357033-0.7148991   c-0.8102322-0.0737267-1.7117405-2.3868713-1.0618591-3.8899517c0.675108,0.4263611,1.4273891,0.0309486,1.5875263-0.6097927   l1.787281-6.9283237c4.3373547,2.3439598,9.7577438,2.7359447,14.7501945,1.7557755l0.7884979,5.1410427   c0.1357841,0.881628,1.2919197,1.2321987,1.8608856,0.483572c0.0105209,0,0.0105209,0,0.0105209-0.0105228   C45.252388,25.8013649,44.4878044,28.9146042,43.4935188,28.9457111z"/></g></svg>