<svg xmlns="http://www.w3.org/2000/svg" viewBox="0 0 128 160" x="0px" y="0px"><title>school, education, study, read, books, apple, learning</title><g><path d="M100.708,87.475a10.166,10.166,0,0,1-.905-.991,6.2,6.2,0,0,1-1.344-4.115,7.081,7.081,0,0,1,0-.238,6.155,6.155,0,0,1,1.341-4.1,10.691,10.691,0,0,1,.909-1,4.1,4.1,0,0,0,1.782-2.8A2.773,2.773,0,0,0,101.882,72a2.414,2.414,0,0,0-1.843-.819H34.347c-5.423,0-11.489,4.733-11.489,11.067s6.066,11.067,11.489,11.067h65.692a2.414,2.414,0,0,0,1.843-.819,2.772,2.772,0,0,0,.609-2.228A4.1,4.1,0,0,0,100.708,87.475ZM96.462,82.25v.021a8.112,8.112,0,0,0,1.416,4.949H36.24c-3.73,0-6.14-1.95-6.14-4.97a4.513,4.513,0,0,1,1.5-3.474,6.85,6.85,0,0,1,4.644-1.5H97.882a8.063,8.063,0,0,0-1.421,4.949Z"/><path d="M101.548,91.317h-84.1a2.41,2.41,0,0,0-1.843.82,2.771,2.771,0,0,0-.609,2.228,4.11,4.11,0,0,0,1.787,2.8,10.184,10.184,0,0,1,.907.992,6.126,6.126,0,0,1,1.334,4.108c0,.041,0,.081,0,.121s0,.08,0,.121a6.122,6.122,0,0,1-1.331,4.1,10.069,10.069,0,0,1-.9.988h0a4.116,4.116,0,0,0-1.8,2.806,2.771,2.771,0,0,0,.609,2.228,2.41,2.41,0,0,0,1.843.82h84.1c5.423,0,11.489-4.733,11.489-11.068S106.971,91.317,101.548,91.317Zm-80.53,11.068v-.01a8.033,8.033,0,0,0-1.413-4.965H99.66a6.847,6.847,0,0,1,4.644,1.5,4.515,4.515,0,0,1,1.5,3.474c0,3.025-2.41,4.98-6.14,4.98H19.606a8.027,8.027,0,0,0,1.413-4.965Z"/><path d="M97.6,81H51.976a1,1,0,0,1,0-2H97.6a1,1,0,0,1,0,2Z"/><path d="M65.508,101.57H19.889a1,1,0,1,1,0-2H65.508a1,1,0,0,1,0,2Z"/><path d="M37.713,84.008a1,1,0,0,0,1,1h45.62a1,1,0,0,0,0-2H38.713A1,1,0,0,0,37.713,84.008Z"/><path d="M95.716,103.768H50.1a1,1,0,0,0,0,2h45.62a1,1,0,0,0,0-2Z"/><path d="M60.533,70.742a5.848,5.848,0,0,1,4.028,0c4.814,1.773,11.814.7,16.659-8.536,4-7.628,5.884-18.78,1.926-25.49-3.165-5.368-11.2-8.058-17.233-4.121a6.164,6.164,0,0,1-6.733,0c-6.028-3.937-14.067-1.247-17.233,4.121-3.958,6.71-2.076,17.862,1.927,25.49C48.718,71.438,55.718,72.515,60.533,70.742Z"/><path d="M56.125,26.146c1.328.325,2.926-.464,1.775-2.249-1.924-2.98-3.517-6.444-6.284-5.927a2.854,2.854,0,0,0-2.051,4.147C50.716,24.078,53.567,25.522,56.125,26.146Z"/><path d="M69.223,16.624a2.016,2.016,0,0,0-2.307-1.033c-3.545.544-8.024,8.472-5.859,14.426.923,2.538,3.167,1.586,3-.227C63.207,20.706,70.778,19.527,69.223,16.624Z"/></g></svg>