<svg xmlns="http://www.w3.org/2000/svg" xmlns:xlink="http://www.w3.org/1999/xlink" version="1.1" x="0px" y="0px" viewBox="0 0 90 112.5" enable-background="new 0 0 90 90" xml:space="preserve"><path d="M35.4,17.5v-3c0-0.6-0.4-1-1-1h-6.5c-0.6,0-1,0.4-1,1v3H35.4z"/><path d="M44.9,29.3h-6.5c-0.6,0-1,0.4-1,1v45.2c0,0.6,0.4,1,1,1h6.5c0.6,0,1-0.4,1-1V30.3C45.9,29.8,45.5,29.3,44.9,29.3z   M40.4,54.5c0,0.6-0.4,1-1,1s-1-0.4-1-1V33.1c0-0.6,0.4-1,1-1s1,0.4,1,1V54.5z M44.3,70.8c0,0.6-0.4,1-1,1s-1-0.4-1-1V55.3  c0-0.6,0.4-1,1-1s1,0.4,1,1V70.8z"/><rect x="30.2" y="38.7" width="2.1" height="14.2"/><path d="M26.9,74v1.5c0,0.6,0.4,1,1,1h6.5c0.6,0,1-0.4,1-1V74H26.9z"/><path d="M24.9,71.8h-8.5v3.7c0,0.6,0.4,1,1,1h6.5c0.6,0,1-0.4,1-1V71.8z"/><path d="M62.6,71.8h-7.8c-0.6,0-1-0.4-1-1s0.4-1,1-1h7.8c0.2,0,0.3,0,0.4,0.1V52.6c-0.2,0.2-0.4,0.3-0.7,0.3h-7.6c-0.6,0-1-0.4-1-1  s0.4-1,1-1h7.6c0.3,0,0.5,0.1,0.7,0.3V20.8c0-0.6-0.4-1-1-1h-13c-0.6,0-1,0.4-1,1v21.3h6.7c0.6,0,1,0.4,1,1s-0.4,1-1,1h-6.7v31.4  c0,0.6,0.4,1,1,1h13c0.6,0,1-0.4,1-1v-3.8C62.9,71.8,62.8,71.8,62.6,71.8z M49.3,30.3c0-0.6,0.4-1,1-1h5.2c0.6,0,1,0.4,1,1  s-0.4,1-1,1h-5.2C49.8,31.3,49.3,30.8,49.3,30.3z M50.9,38.2c-0.6,0-1-0.4-1-1c0-0.6,0.4-1,1-1h6.5c0.6,0,1,0.4,1,1c0,0.6-0.4,1-1,1  H50.9z"/><path d="M66.6,71.8c-0.6,0-1-0.4-1-1s0.4-1,1-1h7V23c0-0.6-0.4-1-1-1h-6.5c-0.6,0-1,0.4-1,1v3.5h6c0.6,0,1,0.4,1,1s-0.4,1-1,1h-6v47  c0,0.6,0.4,1,1,1h6.5c0.6,0,1-0.4,1-1v-3.7H66.6z"/><path d="M35.4,30.3V19.5h-8.5V23v49h8.5V30.3z M28.2,54.8V36.7h6.1v18.2H28.2z"/><path d="M24.9,26.5V23c0-0.6-0.4-1-1-1h-6.5c-0.6,0-1,0.4-1,1v3.5H24.9z"/><rect x="16.4" y="28.5" width="8.5" height="41.3"/></svg>